# xmcd CD database file
#
# Track frame offsets:
#	182
#	18095
#	32067
#	57032
#	80050
#	100447
#	120730
#	141882
#	162290
#	191495
#	212087
#	228782
#	254205
#	287990
#	305992
#	323322
#
# Disc length: 4696 seconds
#
# Revision: 0
# Processed by: cddbd v1.5.1PL2 Copyright (c) Steve Scherf et al.
# Submitted via: CDex 1.51
#
DISCID=e4125610
DTITLE=J. J. Cale - J. J. Does (live Minneapolis 1991)
DYEAR=1991
DGENRE=Blues
TTITLE0=After midnight
TTITLE1=River boat song
TTITLE2=Mama don't
TTITLE3=Humdinger
TTITLE4=Hold on baby
TTITLE5=New Orleans
TTITLE6=Lickin' stick
TTITLE7=Disadvantage
TTITLE8=Hard times
TTITLE9=Movin' Blues
TTITLE10=Magnolia
TTITLE11=Call me the breeze
TTITLE12=Cocaine
TTITLE13=Money talks
TTITLE14=Crazy mama
TTITLE15=Ride me high
EXTD=YEAR: 1991
EXTT0=
EXTT1=
EXTT2=
EXTT3=
EXTT4=
EXTT5=
EXTT6=
EXTT7=
EXTT8=
EXTT9=
EXTT10=
EXTT11=
EXTT12=
EXTT13=
EXTT14=
EXTT15=
PLAYORDER=
